<svg xmlns="http://www.w3.org/2000/svg" width="1440" height="1750"><path d="M814,936L748,1184L863,1108Z" fill="#8985be" stroke="#8985be" stroke-width="1.51"/><path d="M748,1184L899,1261L863,1108Z" fill="#8179b7" stroke="#8179b7" stroke-width="1.51"/><path d="M748,1184L796,1343L899,1261Z" fill="#7f73b5" stroke="#7f73b5" stroke-width="1.51"/><path d="M863,1108L1045,854L814,936Z" fill="#8984be" stroke="#8984be" stroke-width="1.51"/><path d="M1150,1110L1045,854L863,1108Z" fill="#7e73b5" stroke="#7e73b5" stroke-width="1.51"/><path d="M814,936L375,1065L748,1184Z" fill="#9794c6" stroke="#9794c6" stroke-width="1.51"/><path d="M748,1184L483,1345L796,1343Z" fill="#897bb9" stroke="#897bb9" stroke-width="1.51"/><path d="M376,931L375,1065L814,936Z" fill="#a8a6cf" stroke="#a8a6cf" stroke-width="1.51"/><path d="M759,612L376,931L814,936Z" fill="#a7a5ce" stroke="#a7a5ce" stroke-width="1.51"/><path d="M375,1065L483,1345L748,1184Z" fill="#9a92c6" stroke="#9a92c6" stroke-width="1.51"/><path d="M899,1261L1150,1110L863,1108Z" fill="#796eb2" stroke="#796eb2" stroke-width="1.51"/><path d="M1285,1398L1150,1110L899,1261Z" fill="#6b53a5" stroke="#6b53a5" stroke-width="1.51"/><path d="M974,675L759,612L814,936Z" fill="#9d9ac9" stroke="#9d9ac9" stroke-width="1.51"/><path d="M1045,854L974,675L814,936Z" fill="#908ac1" stroke="#908ac1" stroke-width="1.51"/><path d="M1234,674L974,675L1045,854Z" fill="#8e7fbc" stroke="#8e7fbc" stroke-width="1.51"/><path d="M376,931L268,918L375,1065Z" fill="#b7b4d7" stroke="#b7b4d7" stroke-width="1.51"/><path d="M375,1065L253,1442L483,1345Z" fill="#a395c8" stroke="#a395c8" stroke-width="1.51"/><path d="M267,599L268,918L376,931Z" fill="#c3c1dd" stroke="#c3c1dd" stroke-width="1.51"/><path d="M759,612L574,544L376,931Z" fill="#b7b7d8" stroke="#b7b7d8" stroke-width="1.51"/><path d="M632,416L574,544L759,612Z" fill="#bbbada" stroke="#bbbada" stroke-width="1.51"/><path d="M1150,1110L1233,834L1045,854Z" fill="#7d6ab0" stroke="#7d6ab0" stroke-width="1.51"/><path d="M796,1343L1046,1567L899,1261Z" fill="#715faa" stroke="#715faa" stroke-width="1.51"/><path d="M1150,1110L1514,1178L1233,834Z" fill="#6d53a4" stroke="#6d53a4" stroke-width="1.51"/><path d="M682,1699L1046,1567L796,1343Z" fill="#7157a7" stroke="#7157a7" stroke-width="1.51"/><path d="M1233,834L1234,674L1045,854Z" fill="#8671b5" stroke="#8671b5" stroke-width="1.51"/><path d="M993,380L632,416L759,612Z" fill="#b4b1d5" stroke="#b4b1d5" stroke-width="1.51"/><path d="M572,1691L682,1699L796,1343Z" fill="#7c61ac" stroke="#7c61ac" stroke-width="1.51"/><path d="M120,1177L253,1442L375,1065Z" fill="#ada2cf" stroke="#ada2cf" stroke-width="1.51"/><path d="M268,918L120,1177L375,1065Z" fill="#b6b2d7" stroke="#b6b2d7" stroke-width="1.51"/><path d="M574,544L267,599L376,931Z" fill="#c4c5e0" stroke="#c4c5e0" stroke-width="1.51"/><path d="M993,380L759,612L974,675Z" fill="#a5a2ce" stroke="#a5a2ce" stroke-width="1.51"/><path d="M1046,1567L1285,1398L899,1261Z" fill="#66499f" stroke="#66499f" stroke-width="1.51"/><path d="M1233,834L1488,772L1234,674Z" fill="#8065ae" stroke="#8065ae" stroke-width="1.51"/><path d="M572,1691L796,1343L483,1345Z" fill="#8771b5" stroke="#8771b5" stroke-width="1.51"/><path d="M396,280L267,599L574,544Z" fill="#d3d3e8" stroke="#d3d3e8" stroke-width="1.51"/><path d="M268,918L-108,1017L120,1177Z" fill="#bfbadb" stroke="#bfbadb" stroke-width="1.51"/><path d="M253,1442L572,1691L483,1345Z" fill="#947dbc" stroke="#947dbc" stroke-width="1.51"/><path d="M1234,674L993,380L974,675Z" fill="#9a8cc3" stroke="#9a8cc3" stroke-width="1.51"/><path d="M267,599L88,696L268,918Z" fill="#cecde4" stroke="#cecde4" stroke-width="1.51"/><path d="M1286,1679L1365,1586L1285,1398Z" fill="#50218b" stroke="#50218b" stroke-width="1.51"/><path d="M682,1699L817,1795L1046,1567Z" fill="#694da0" stroke="#694da0" stroke-width="1.51"/><path d="M525,1825L817,1795L682,1699Z" fill="#7657a5" stroke="#7657a5" stroke-width="1.51"/><path d="M1285,1398L1514,1178L1150,1110Z" fill="#61419a" stroke="#61419a" stroke-width="1.51"/><path d="M1234,674L1296,418L993,380Z" fill="#9a85c0" stroke="#9a85c0" stroke-width="1.51"/><path d="M1514,1178L1488,772L1233,834Z" fill="#6f52a2" stroke="#6f52a2" stroke-width="1.51"/><path d="M572,1691L525,1825L682,1699Z" fill="#7d5faa" stroke="#7d5faa" stroke-width="1.51"/><path d="M176,1691L525,1825L572,1691Z" fill="#8b6db2" stroke="#8b6db2" stroke-width="1.51"/><path d="M120,1177L12,1415L253,1442Z" fill="#ae9bcc" stroke="#ae9bcc" stroke-width="1.51"/><path d="M253,1442L176,1691L572,1691Z" fill="#987bbb" stroke="#987bbb" stroke-width="1.51"/><path d="M-243,1269L12,1415L120,1177Z" fill="#b5a5d1" stroke="#b5a5d1" stroke-width="1.51"/><path d="M88,696L-34,791L268,918Z" fill="#cecce3" stroke="#cecce3" stroke-width="1.51"/><path d="M817,1795L857,1860L1046,1567Z" fill="#62459b" stroke="#62459b" stroke-width="1.51"/><path d="M1285,1398L1527,1319L1514,1178Z" fill="#573090" stroke="#573090" stroke-width="1.51"/><path d="M525,1825L857,1860L817,1795Z" fill="#7152a2" stroke="#7152a2" stroke-width="1.51"/><path d="M1286,1679L1285,1398L1046,1567Z" fill="#572d92" stroke="#572d92" stroke-width="1.51"/><path d="M1365,1586L1527,1319L1285,1398Z" fill="#52268d" stroke="#52268d" stroke-width="1.51"/><path d="M1767,1035L1729,831L1488,772Z" fill="#7152a2" stroke="#7152a2" stroke-width="1.51"/><path d="M996,2012L1286,1679L1046,1567Z" fill="#542b8e" stroke="#542b8e" stroke-width="1.51"/><path d="M1488,772L1401,531L1234,674Z" fill="#8568b0" stroke="#8568b0" stroke-width="1.51"/><path d="M1401,531L1296,418L1234,674Z" fill="#9074b7" stroke="#9074b7" stroke-width="1.51"/><path d="M267,599L135,383L88,696Z" fill="#dcdcec" stroke="#dcdcec" stroke-width="1.51"/><path d="M88,696L-190,607L-34,791Z" fill="#d9d8ea" stroke="#d9d8ea" stroke-width="1.51"/><path d="M632,416L396,280L574,544Z" fill="#cccde5" stroke="#cccde5" stroke-width="1.51"/><path d="M421,192L396,280L632,416Z" fill="#d6d6e9" stroke="#d6d6e9" stroke-width="1.51"/><path d="M766,196L632,416L993,380Z" fill="#bab7d9" stroke="#bab7d9" stroke-width="1.51"/><path d="M-34,791L-108,1017L268,918Z" fill="#c9c5e0" stroke="#c9c5e0" stroke-width="1.51"/><path d="M959,209L766,196L993,380Z" fill="#b5b1d6" stroke="#b5b1d6" stroke-width="1.51"/><path d="M12,1415L176,1691L253,1442Z" fill="#a58ac3" stroke="#a58ac3" stroke-width="1.51"/><path d="M1190,176L959,209L993,380Z" fill="#ae9fcd" stroke="#ae9fcd" stroke-width="1.51"/><path d="M396,280L135,383L267,599Z" fill="#e0dfee" stroke="#e0dfee" stroke-width="1.51"/><path d="M766,196L421,192L632,416Z" fill="#cdcce4" stroke="#cdcce4" stroke-width="1.51"/><path d="M396,280L269,79L135,383Z" fill="#e8e7f2" stroke="#e8e7f2" stroke-width="1.51"/><path d="M959,209L894,6L766,196Z" fill="#bdb8da" stroke="#bdb8da" stroke-width="1.51"/><path d="M766,196L495,-72L421,192Z" fill="#d7d6e9" stroke="#d7d6e9" stroke-width="1.51"/><path d="M1296,418L1190,176L993,380Z" fill="#a48fc5" stroke="#a48fc5" stroke-width="1.51"/><path d="M1521,336L1190,176L1296,418Z" fill="#9b7dbc" stroke="#9b7dbc" stroke-width="1.51"/><path d="M857,1860L996,2012L1046,1567Z" fill="#5e3d97" stroke="#5e3d97" stroke-width="1.51"/><path d="M786,2103L996,2012L857,1860Z" fill="#64479c" stroke="#64479c" stroke-width="1.51"/><path d="M563,2072L857,1860L525,1825Z" fill="#7859a6" stroke="#7859a6" stroke-width="1.51"/><path d="M1700,1694L1647,1469L1365,1586Z" fill="#471284" stroke="#471284" stroke-width="1.51"/><path d="M1365,1586L1647,1469L1527,1319Z" fill="#4e1f89" stroke="#4e1f89" stroke-width="1.51"/><path d="M1527,1319L1767,1035L1514,1178Z" fill="#5e3d97" stroke="#5e3d97" stroke-width="1.51"/><path d="M1503,1824L1365,1586L1286,1679Z" fill="#450e82" stroke="#450e82" stroke-width="1.51"/><path d="M12,1415L-79,1701L176,1691Z" fill="#a587c2" stroke="#a587c2" stroke-width="1.51"/><path d="M-108,1017L-243,1269L120,1177Z" fill="#bbb4d8" stroke="#bbb4d8" stroke-width="1.51"/><path d="M-324,1117L-243,1269L-108,1017Z" fill="#bcb6d9" stroke="#bcb6d9" stroke-width="1.51"/><path d="M-271,899L-108,1017L-34,791Z" fill="#cbc7e1" stroke="#cbc7e1" stroke-width="1.51"/><path d="M1767,1035L1488,772L1514,1178Z" fill="#694b9e" stroke="#694b9e" stroke-width="1.51"/><path d="M1488,772L1778,580L1401,531Z" fill="#8365ad" stroke="#8365ad" stroke-width="1.51"/><path d="M1401,531L1521,336L1296,418Z" fill="#9273b5" stroke="#9273b5" stroke-width="1.51"/><path d="M176,1691L286,1953L525,1825Z" fill="#9271b5" stroke="#9271b5" stroke-width="1.51"/><path d="M-121,1825L286,1953L176,1691Z" fill="#9d7bba" stroke="#9d7bba" stroke-width="1.51"/><path d="M996,2012L1302,1895L1286,1679Z" fill="#4e2089" stroke="#4e2089" stroke-width="1.51"/><path d="M-190,607L-271,899L-34,791Z" fill="#d4d2e7" stroke="#d4d2e7" stroke-width="1.51"/><path d="M1920,1135L1767,1035L1527,1319Z" fill="#5e3e98" stroke="#5e3e98" stroke-width="1.51"/><path d="M-69,411L-190,607L88,696Z" fill="#e2e1ef" stroke="#e2e1ef" stroke-width="1.51"/><path d="M135,383L-69,411L88,696Z" fill="#e5e4f1" stroke="#e5e4f1" stroke-width="1.51"/><path d="M-81,225L-69,411L135,383Z" fill="#efeef6" stroke="#efeef6" stroke-width="1.51"/><path d="M286,1953L563,2072L525,1825Z" fill="#8869b0" stroke="#8869b0" stroke-width="1.51"/><path d="M-240,1702L-79,1701L12,1415Z" fill="#a788c3" stroke="#a788c3" stroke-width="1.51"/><path d="M563,2072L786,2103L857,1860Z" fill="#7051a2" stroke="#7051a2" stroke-width="1.51"/><path d="M996,2012L1259,2193L1302,1895Z" fill="#4f218a" stroke="#4f218a" stroke-width="1.51"/><path d="M1190,176L894,6L959,209Z" fill="#b3a7d1" stroke="#b3a7d1" stroke-width="1.51"/><path d="M1778,580L1521,336L1401,531Z" fill="#8d6db2" stroke="#8d6db2" stroke-width="1.51"/><path d="M1190,176L1230,-27L894,6Z" fill="#b19ecd" stroke="#b19ecd" stroke-width="1.51"/><path d="M-240,1702L-121,1825L-79,1701Z" fill="#a17fbd" stroke="#a17fbd" stroke-width="1.51"/><path d="M-271,899L-324,1117L-108,1017Z" fill="#c3c0de" stroke="#c3c0de" stroke-width="1.51"/><path d="M495,-72L269,79L421,192Z" fill="#e6e5f1" stroke="#e6e5f1" stroke-width="1.51"/><path d="M421,192L269,79L396,280Z" fill="#e5e4f0" stroke="#e5e4f0" stroke-width="1.51"/><path d="M1641,1955L1503,1824L1419,2193Z" fill="#3f007d" stroke="#3f007d" stroke-width="1.51"/><path d="M1302,1895L1503,1824L1286,1679Z" fill="#440a81" stroke="#440a81" stroke-width="1.51"/><path d="M-81,225L-196,451L-69,411Z" fill="#eeedf5" stroke="#eeedf5" stroke-width="1.51"/><path d="M-69,411L-196,451L-190,607Z" fill="#e7e7f2" stroke="#e7e7f2" stroke-width="1.51"/><path d="M-190,607L-324,160L-271,899Z" fill="#e3e2f0" stroke="#e3e2f0" stroke-width="1.51"/><path d="M-271,899L-324,160L-324,1117Z" fill="#d7d6e9" stroke="#d7d6e9" stroke-width="1.51"/><path d="M1995,881L1778,580L1729,831Z" fill="#7a5ba7" stroke="#7a5ba7" stroke-width="1.51"/><path d="M1729,831L1778,580L1488,772Z" fill="#7c5da9" stroke="#7c5da9" stroke-width="1.51"/><path d="M697,-109L495,-72L766,196Z" fill="#d2d0e6" stroke="#d2d0e6" stroke-width="1.51"/><path d="M1503,1824L1700,1694L1365,1586Z" fill="#42057f" stroke="#42057f" stroke-width="1.51"/><path d="M1647,1469L1920,1135L1527,1319Z" fill="#562f90" stroke="#562f90" stroke-width="1.51"/><path d="M709,-276L697,-109L894,6Z" fill="#c9c5e0" stroke="#c9c5e0" stroke-width="1.51"/><path d="M894,6L697,-109L766,196Z" fill="#c6c3df" stroke="#c6c3df" stroke-width="1.51"/><path d="M-79,1701L-121,1825L176,1691Z" fill="#a180bd" stroke="#a180bd" stroke-width="1.51"/><path d="M286,1953L408,2340L563,2072Z" fill="#8b6cb1" stroke="#8b6cb1" stroke-width="1.51"/><path d="M-240,1702L12,1415L-243,1269Z" fill="#ad94c9" stroke="#ad94c9" stroke-width="1.51"/><path d="M269,79L-81,225L135,383Z" fill="#f1eff7" stroke="#f1eff7" stroke-width="1.51"/><path d="M28,-166L-81,225L269,79Z" fill="#f8f6fb" stroke="#f8f6fb" stroke-width="1.51"/><path d="M-324,1117L-240,1702L-243,1269Z" fill="#b19ecd" stroke="#b19ecd" stroke-width="1.51"/><path d="M1767,1035L1995,881L1729,831Z" fill="#6f50a1" stroke="#6f50a1" stroke-width="1.51"/><path d="M2007,1416L1920,1135L1647,1469Z" fill="#542c8e" stroke="#542c8e" stroke-width="1.51"/><path d="M1490,83L1230,-27L1190,176Z" fill="#a588c2" stroke="#a588c2" stroke-width="1.51"/><path d="M1490,83L1190,176L1521,336Z" fill="#9d7cbb" stroke="#9d7cbb" stroke-width="1.51"/><path d="M-121,1825L163,2094L286,1953Z" fill="#9d7bba" stroke="#9d7bba" stroke-width="1.51"/><path d="M982,2336L996,2012L786,2103Z" fill="#61439a" stroke="#61439a" stroke-width="1.51"/><path d="M480,-414L293,-85L495,-72Z" fill="#e6e5f1" stroke="#e6e5f1" stroke-width="1.51"/><path d="M495,-72L293,-85L269,79Z" fill="#ebebf4" stroke="#ebebf4" stroke-width="1.51"/><path d="M1723,103L1490,83L1521,336Z" fill="#9c7aba" stroke="#9c7aba" stroke-width="1.51"/><path d="M1113,2271L1259,2193L996,2012Z" fill="#53298d" stroke="#53298d" stroke-width="1.51"/><path d="M1503,1824L1641,1955L1700,1694Z" fill="#3f007d" stroke="#3f007d" stroke-width="1.51"/><path d="M1113,2271L996,2012L982,2336Z" fill="#593593" stroke="#593593" stroke-width="1.51"/><path d="M1920,1135L1995,881L1767,1035Z" fill="#684a9e" stroke="#684a9e" stroke-width="1.51"/><path d="M1778,580L1781,323L1521,336Z" fill="#9171b4" stroke="#9171b4" stroke-width="1.51"/><path d="M1967,563L1867,468L1778,580Z" fill="#896ab0" stroke="#896ab0" stroke-width="1.51"/><path d="M1867,468L1781,323L1778,580Z" fill="#8f6fb3" stroke="#8f6fb3" stroke-width="1.51"/><path d="M1700,1694L1905,1648L1647,1469Z" fill="#461083" stroke="#461083" stroke-width="1.51"/><path d="M1419,2193L1503,1824L1302,1895Z" fill="#41047e" stroke="#41047e" stroke-width="1.51"/><path d="M982,2336L786,2103L786,2430Z" fill="#66499d" stroke="#66499d" stroke-width="1.51"/><path d="M1966,1788L1905,1648L1700,1694Z" fill="#41047e" stroke="#41047e" stroke-width="1.51"/><path d="M1920,1135L2007,1416L1995,881Z" fill="#5f4099" stroke="#5f4099" stroke-width="1.51"/><path d="M786,2430L786,2103L563,2072Z" fill="#7254a3" stroke="#7254a3" stroke-width="1.51"/><path d="M-324,1117L-270,1889L-240,1702Z" fill="#a88bc4" stroke="#a88bc4" stroke-width="1.51"/><path d="M-240,1702L-270,1889L-121,1825Z" fill="#a17fbd" stroke="#a17fbd" stroke-width="1.51"/><path d="M-121,1825L-111,2119L163,2094Z" fill="#a17fbd" stroke="#a17fbd" stroke-width="1.51"/><path d="M1490,83L1531,-4L1230,-27Z" fill="#a280bd" stroke="#a280bd" stroke-width="1.51"/><path d="M907,-383L709,-276L894,6Z" fill="#c3bfde" stroke="#c3bfde" stroke-width="1.51"/><path d="M1723,103L1531,-4L1490,83Z" fill="#9f7dbc" stroke="#9f7dbc" stroke-width="1.51"/><path d="M1905,1648L2007,1416L1647,1469Z" fill="#4b1987" stroke="#4b1987" stroke-width="1.51"/><path d="M1781,323L1723,103L1521,336Z" fill="#9977b8" stroke="#9977b8" stroke-width="1.51"/><path d="M1867,468L1881,105L1781,323Z" fill="#9776b7" stroke="#9776b7" stroke-width="1.51"/><path d="M1995,881L1967,563L1778,580Z" fill="#8062ab" stroke="#8062ab" stroke-width="1.51"/><path d="M697,-109L709,-276L495,-72Z" fill="#d4d2e7" stroke="#d4d2e7" stroke-width="1.51"/><path d="M907,-383L894,6L1171,-360Z" fill="#b9aed5" stroke="#b9aed5" stroke-width="1.51"/><path d="M1353,2245L1259,2193L1113,2271Z" fill="#4b1a87" stroke="#4b1a87" stroke-width="1.51"/><path d="M1353,2245L1419,2193L1259,2193Z" fill="#450d82" stroke="#450d82" stroke-width="1.51"/><path d="M1259,2193L1419,2193L1302,1895Z" fill="#460f82" stroke="#460f82" stroke-width="1.51"/><path d="M236,2365L408,2340L163,2094Z" fill="#9675b6" stroke="#9675b6" stroke-width="1.51"/><path d="M163,2094L408,2340L286,1953Z" fill="#9574b6" stroke="#9574b6" stroke-width="1.51"/><path d="M982,2336L1353,2245L1113,2271Z" fill="#51268c" stroke="#51268c" stroke-width="1.51"/><path d="M1881,105L1723,103L1781,323Z" fill="#9c7aba" stroke="#9c7aba" stroke-width="1.51"/><path d="M-270,1889L-111,2119L-121,1825Z" fill="#a17fbd" stroke="#a17fbd" stroke-width="1.51"/><path d="M408,2340L786,2430L563,2072Z" fill="#7d5faa" stroke="#7d5faa" stroke-width="1.51"/><path d="M982,2336L1677,2296L1353,2245Z" fill="#450e82" stroke="#450e82" stroke-width="1.51"/><path d="M-291,-18L-324,160L-81,225Z" fill="#f8f7fb" stroke="#f8f7fb" stroke-width="1.51"/><path d="M-81,225L-324,160L-196,451Z" fill="#f2f1f7" stroke="#f2f1f7" stroke-width="1.51"/><path d="M-196,451L-324,160L-190,607Z" fill="#ececf4" stroke="#ececf4" stroke-width="1.51"/><path d="M28,-166L269,79L293,-85Z" fill="#f4f3f8" stroke="#f4f3f8" stroke-width="1.51"/><path d="M-59,2368L236,2365L163,2094Z" fill="#9d7bba" stroke="#9d7bba" stroke-width="1.51"/><path d="M408,2340L236,2365L786,2430Z" fill="#8768af" stroke="#8768af" stroke-width="1.51"/><path d="M137,-323L28,-166L293,-85Z" fill="#f6f5f9" stroke="#f6f5f9" stroke-width="1.51"/><path d="M1905,1648L1966,1788L2007,1416Z" fill="#460e82" stroke="#460e82" stroke-width="1.51"/><path d="M1641,1955L1783,2001L1700,1694Z" fill="#3f007d" stroke="#3f007d" stroke-width="1.51"/><path d="M1677,2296L1783,2001L1641,1955Z" fill="#3f007d" stroke="#3f007d" stroke-width="1.51"/><path d="M1677,2296L1641,1955L1419,2193Z" fill="#3f007d" stroke="#3f007d" stroke-width="1.51"/><path d="M1783,2001L1966,1788L1700,1694Z" fill="#3f007d" stroke="#3f007d" stroke-width="1.51"/><path d="M1171,-360L894,6L1230,-27Z" fill="#b3a1cf" stroke="#b3a1cf" stroke-width="1.51"/><path d="M709,-276L480,-414L495,-72Z" fill="#dadaeb" stroke="#dadaeb" stroke-width="1.51"/><path d="M1171,-360L1230,-27L1352,-369Z" fill="#aa8ec6" stroke="#aa8ec6" stroke-width="1.51"/><path d="M1352,-369L1230,-27L1531,-4Z" fill="#a484c0" stroke="#a484c0" stroke-width="1.51"/><path d="M1723,103L1663,-163L1531,-4Z" fill="#a17fbd" stroke="#a17fbd" stroke-width="1.51"/><path d="M1967,563L1881,105L1867,468Z" fill="#9372b5" stroke="#9372b5" stroke-width="1.51"/><path d="M28,-166L-291,-18L-81,225Z" fill="#fbfafc" stroke="#fbfafc" stroke-width="1.51"/><path d="M907,-383L480,-414L709,-276Z" fill="#cfcce3" stroke="#cfcce3" stroke-width="1.51"/><path d="M28,-166L-329,-430L-291,-18Z" fill="#fcfbfd" stroke="#fcfbfd" stroke-width="1.51"/><path d="M480,-414L137,-323L293,-85Z" fill="#eeedf5" stroke="#eeedf5" stroke-width="1.51"/><path d="M-111,2119L-59,2368L163,2094Z" fill="#a17fbd" stroke="#a17fbd" stroke-width="1.51"/><path d="M-270,1889L-314,2118L-111,2119Z" fill="#a17fbd" stroke="#a17fbd" stroke-width="1.51"/><path d="M-324,1117L-314,2118L-270,1889Z" fill="#a382be" stroke="#a382be" stroke-width="1.51"/><path d="M1885,-31L1663,-163L1723,103Z" fill="#a17fbd" stroke="#a17fbd" stroke-width="1.51"/><path d="M-253,2404L-59,2368L-111,2119Z" fill="#a17fbd" stroke="#a17fbd" stroke-width="1.51"/><path d="M236,2365L-253,2404L786,2430Z" fill="#9675b7" stroke="#9675b7" stroke-width="1.51"/><path d="M1663,-163L1352,-369L1531,-4Z" fill="#a17fbd" stroke="#a17fbd" stroke-width="1.51"/><path d="M1171,-360L1352,-369L907,-383Z" fill="#b09bcc" stroke="#b09bcc" stroke-width="1.51"/><path d="M907,-383L1996,-444L480,-414Z" fill="#b19dcd" stroke="#b19dcd" stroke-width="1.51"/><path d="M1353,2245L1677,2296L1419,2193Z" fill="#3f007d" stroke="#3f007d" stroke-width="1.51"/><path d="M1783,2001L2051,2054L1966,1788Z" fill="#3f007d" stroke="#3f007d" stroke-width="1.51"/><path d="M1961,2425L1677,2296L982,2336Z" fill="#3f007d" stroke="#3f007d" stroke-width="1.51"/><path d="M1881,105L1885,-31L1723,103Z" fill="#9f7dbc" stroke="#9f7dbc" stroke-width="1.51"/><path d="M1663,-163L1735,-294L1352,-369Z" fill="#a17fbd" stroke="#a17fbd" stroke-width="1.51"/><path d="M1996,-444L1885,-31L1881,105Z" fill="#a17fbd" stroke="#a17fbd" stroke-width="1.51"/><path d="M137,-323L30,-426L28,-166Z" fill="#f9f8fb" stroke="#f9f8fb" stroke-width="1.51"/><path d="M480,-414L30,-426L137,-323Z" fill="#f3f2f8" stroke="#f3f2f8" stroke-width="1.51"/><path d="M1677,2296L2051,2054L1783,2001Z" fill="#3f007d" stroke="#3f007d" stroke-width="1.51"/><path d="M1966,1788L2051,2054L2007,1416Z" fill="#3f007d" stroke="#3f007d" stroke-width="1.51"/><path d="M2007,1416L2051,2054L1995,881Z" fill="#4f2089" stroke="#4f2089" stroke-width="1.51"/><path d="M1885,-31L1735,-294L1663,-163Z" fill="#a17fbd" stroke="#a17fbd" stroke-width="1.51"/><path d="M-314,2118L-253,2404L-111,2119Z" fill="#a17fbd" stroke="#a17fbd" stroke-width="1.51"/><path d="M-59,2368L-253,2404L236,2365Z" fill="#a17fbd" stroke="#a17fbd" stroke-width="1.51"/><path d="M30,-426L-329,-430L28,-166Z" fill="#fcfbfd" stroke="#fcfbfd" stroke-width="1.51"/><path d="M-291,-18L-329,-430L-324,160Z" fill="#fcfbfd" stroke="#fcfbfd" stroke-width="1.51"/><path d="M-324,160L-329,-430L-324,1117Z" fill="#f2f1f7" stroke="#f2f1f7" stroke-width="1.51"/><path d="M786,2430L1961,2425L982,2336Z" fill="#4b1987" stroke="#4b1987" stroke-width="1.51"/><path d="M1677,2296L1961,2425L2051,2054Z" fill="#3f007d" stroke="#3f007d" stroke-width="1.51"/><path d="M1885,-31L1996,-444L1735,-294Z" fill="#a17fbd" stroke="#a17fbd" stroke-width="1.51"/><path d="M1735,-294L1996,-444L1352,-369Z" fill="#a17fbd" stroke="#a17fbd" stroke-width="1.51"/><path d="M1352,-369L1996,-444L907,-383Z" fill="#a281be" stroke="#a281be" stroke-width="1.51"/><path d="M480,-414L1996,-444L30,-426Z" fill="#c3bfde" stroke="#c3bfde" stroke-width="1.51"/><path d="M30,-426L1996,-444L-329,-430Z" fill="#dad9eb" stroke="#dad9eb" stroke-width="1.51"/><path d="M1967,563L1996,-444L1881,105Z" fill="#9f7dbb" stroke="#9f7dbb" stroke-width="1.51"/><path d="M1995,881L1996,-444L1967,563Z" fill="#9574b6" stroke="#9574b6" stroke-width="1.51"/><path d="M2051,2054L1996,-444L1995,881Z" fill="#7556a4" stroke="#7556a4" stroke-width="1.51"/></svg>